<svg width="38" height="38" viewBox="0 0 38 38" fill="none" xmlns="http://www.w3.org/2000/svg">
<path d="M18.7919 4.52393C10.9451 4.52393 4.55727 10.9062 4.55442 18.753C4.553 21.2613 5.20996 23.7099 6.45554 25.8676L4.5238 33.0267L11.9807 31.2648C14.06 32.3992 16.4007 32.9947 18.7835 32.9961H18.7891C26.6345 32.9961 33.0195 26.6124 33.0238 18.767C33.0266 14.9633 31.5475 11.387 28.8597 8.69635C26.1719 6.00712 22.5999 4.52535 18.7919 4.52393ZM18.7891 7.3742C21.8332 7.37563 24.694 8.56248 26.8445 10.7116C28.995 12.8635 30.1764 15.7229 30.1735 18.7642C30.1707 25.0405 25.0655 30.1458 18.7863 30.1458C16.8866 30.1444 15.0049 29.6674 13.3474 28.7624L12.3871 28.2391L11.3266 28.4896L8.52087 29.1521L9.20561 26.608L9.51457 25.4668L8.92448 24.4425C7.92973 22.7209 7.40327 20.7525 7.4047 18.753C7.40755 12.4796 12.5142 7.3742 18.7891 7.3742ZM13.7538 12.184C13.5158 12.184 13.131 12.2731 12.8046 12.6294C12.4783 12.9843 11.5576 13.8437 11.5576 15.5938C11.5576 17.3439 12.8325 19.0356 13.0106 19.2736C13.1873 19.5101 15.4714 23.215 19.0869 24.6401C22.0911 25.8244 22.7013 25.5907 23.354 25.5308C24.0067 25.4724 25.4597 24.6721 25.7561 23.8412C26.0526 23.0104 26.0533 22.2957 25.9649 22.1489C25.8765 22.0007 25.6392 21.9123 25.283 21.7341C24.9281 21.556 23.1793 20.6973 22.853 20.579C22.5266 20.4607 22.2879 20.4009 22.0513 20.7571C21.8148 21.1134 21.1349 21.9123 20.9268 22.1489C20.7187 22.3869 20.5121 22.4189 20.1558 22.2407C19.7995 22.0612 18.654 21.6846 17.2944 20.4732C16.2369 19.5312 15.5234 18.3689 15.3153 18.0126C15.1087 17.6578 15.2958 17.4629 15.474 17.2862C15.6336 17.1265 15.8275 16.8707 16.0056 16.6627C16.1824 16.4546 16.2436 16.3063 16.3619 16.0698C16.4802 15.8332 16.4197 15.6244 16.3313 15.4463C16.2429 15.2681 15.551 13.5116 15.2346 12.8075C14.9681 12.2161 14.6866 12.2024 14.433 12.1924C14.2263 12.1838 13.9904 12.184 13.7538 12.184Z" fill="white"/>
</svg>
