<svg width="38" height="38" viewBox="0 0 38 38" fill="none" xmlns="http://www.w3.org/2000/svg">
<path d="M7.64021 5.42847C5.91839 5.42847 4.5238 6.82306 4.5238 8.54487V30.3597C4.5238 32.0815 5.91839 33.4761 7.64021 33.4761H29.455C31.1768 33.4761 32.5714 32.0815 32.5714 30.3597V8.54487C32.5714 6.82306 31.1768 5.42847 29.455 5.42847H7.64021ZM7.64021 8.54487H29.455V30.3597H7.64021V8.54487ZM11.9709 10.5961C10.6355 10.5961 9.83447 11.3988 9.83447 12.4678C9.83447 13.5367 10.6356 14.3364 11.837 14.3364C13.1724 14.3364 13.9734 13.5367 13.9734 12.4678C13.9734 11.3988 13.1723 10.5961 11.9709 10.5961ZM9.94099 16.3359V27.2433H13.873V16.3359H9.94099ZM17.1172 16.3359V27.2433H21.0493V21.2813C21.0493 19.5065 22.3155 19.2514 22.6957 19.2514C23.0759 19.2514 24.0926 19.6328 24.0926 21.2813V27.2433H27.8968V21.2813C27.8968 17.858 26.3756 16.3359 24.473 16.3359C22.5705 16.3359 21.5557 16.9694 21.0493 17.8576V16.3359H17.1172Z" fill="white"/>
</svg>
