<svg width="24" height="24" viewBox="0 0 24 24" fill="none" xmlns="http://www.w3.org/2000/svg">
<path d="M1.2 4C0.537258 4 0 4.53726 0 5.2C0 5.86274 0.537259 6.4 1.2 6.4H22.8C23.4627 6.4 24 5.86274 24 5.2C24 4.53726 23.4627 4 22.8 4H1.2ZM14.2 11.2C13.5373 11.2 13 11.7373 13 12.4C13 13.0627 13.5373 13.6 14.2 13.6H22.8C23.4627 13.6 24 13.0627 24 12.4C24 11.7373 23.4627 11.2 22.8 11.2H14.2ZM9.2 18.4C8.53726 18.4 8 18.9373 8 19.6C8 20.2627 8.53726 20.8 9.2 20.8H22.8C23.4627 20.8 24 20.2627 24 19.6C24 18.9373 23.4627 18.4 22.8 18.4H9.2Z" fill="white"/>
</svg>
