<svg width="40" height="40" viewBox="0 0 40 40" fill="none" xmlns="http://www.w3.org/2000/svg">
<path d="M13.4833 19.3832H5.66665C5.79998 11.5999 7.33331 10.3166 12.1166 7.48324C12.6666 7.14991 12.85 6.44991 12.5166 5.88324C12.2 5.33324 11.4833 5.14991 10.9333 5.48324C5.29998 8.81658 3.33331 10.8499 3.33331 20.5332V29.5166C3.33331 32.3666 5.64998 34.6666 8.48331 34.6666H13.4833C16.4166 34.6666 18.6333 32.4499 18.6333 29.5166V24.5166C18.6333 21.5999 16.4166 19.3832 13.4833 19.3832Z" fill="white"/>
<path d="M31.5166 19.3832H23.7C23.8333 11.5999 25.3666 10.3166 30.15 7.48324C30.7 7.14991 30.8833 6.44991 30.55 5.88324C30.2166 5.33324 29.5166 5.14991 28.95 5.48324C23.3166 8.81658 21.35 10.8499 21.35 20.5499V29.5332C21.35 32.3832 23.6666 34.6832 26.5 34.6832H31.5C34.4333 34.6832 36.65 32.4666 36.65 29.5332V24.5332C36.6666 21.5999 34.45 19.3832 31.5166 19.3832Z" fill="white"/>
</svg>
