<svg width="50" height="50" viewBox="0 0 50 50" fill="none" xmlns="http://www.w3.org/2000/svg">
<circle cx="25" cy="25" r="25" fill="#6C6C4A"/>
<path opacity="0.4" d="M30.2388 12.5H19.7625C15.9625 12.5 13.75 14.725 13.75 18.5375V31.45C13.75 35.325 15.9625 37.5 19.7625 37.5H30.2388C34.1 37.5 36.25 35.325 36.25 31.45V18.5375C36.25 14.725 34.1 12.5 30.2388 12.5Z" fill="#FFE766"/>
<path fill-rule="evenodd" clip-rule="evenodd" d="M20.1 18.3125V18.325C19.5613 18.325 19.125 18.7625 19.125 19.3C19.125 19.8375 19.5613 20.275 20.1 20.275H23.8363C24.375 20.275 24.8125 19.8375 24.8125 19.2862C24.8125 18.75 24.375 18.3125 23.8363 18.3125H20.1ZM29.9 25.9251H20.1C19.5613 25.9251 19.125 25.4876 19.125 24.9501C19.125 24.4126 19.5613 23.9738 20.1 23.9738H29.9C30.4375 23.9738 30.875 24.4126 30.875 24.9501C30.875 25.4876 30.4375 25.9251 29.9 25.9251ZM29.9 31.6374H20.1C19.725 31.6874 19.3625 31.4999 19.1625 31.1874C18.9625 30.8624 18.9625 30.4499 19.1625 30.1374C19.3625 29.8124 19.725 29.6374 20.1 29.6749H29.9C30.3988 29.7249 30.775 30.1499 30.775 30.6624C30.775 31.1612 30.3988 31.5874 29.9 31.6374Z" fill="#FFE766"/>
</svg>
