<svg width="50" height="50" viewBox="0 0 50 50" fill="none" xmlns="http://www.w3.org/2000/svg">
<circle cx="25" cy="25" r="25" fill="#6C6C4A"/>
<path d="M22.6909 16.9444C22.7546 17.074 22.7967 17.2128 22.8155 17.3554L23.1635 22.5303L23.3363 25.1314C23.3381 25.3988 23.38 25.6646 23.4608 25.9201C23.6695 26.4157 24.1715 26.7307 24.7176 26.7088L33.0392 26.1644C33.3995 26.1585 33.7475 26.2933 34.0065 26.5391C34.2224 26.744 34.3618 27.012 34.4057 27.3002L34.4204 27.4752C34.0761 32.2436 30.5739 36.2208 25.8154 37.2475C21.0569 38.2742 16.1773 36.1054 13.8259 31.9186C13.148 30.7023 12.7246 29.3653 12.5805 27.9862C12.5203 27.578 12.4938 27.1656 12.5012 26.7532C12.4938 21.6409 16.1343 17.2212 21.2304 16.1557C21.8438 16.0602 22.445 16.3849 22.6909 16.9444Z" fill="#FFE766"/>
<path opacity="0.4" d="M26.0875 12.501C31.7874 12.646 36.5779 16.7447 37.5 22.2654L37.4912 22.3061L37.466 22.3653L37.4695 22.528C37.4565 22.7434 37.3733 22.9507 37.23 23.1181C37.0806 23.2925 36.8766 23.4113 36.652 23.4574L36.515 23.4762L26.914 24.0983C26.5947 24.1298 26.2767 24.0268 26.0392 23.8149C25.8413 23.6384 25.7148 23.4001 25.679 23.1433L25.0346 13.5563C25.0234 13.5239 25.0234 13.4888 25.0346 13.4564C25.0434 13.1921 25.1597 12.9423 25.3576 12.7628C25.5554 12.5833 25.8183 12.489 26.0875 12.501Z" fill="#FFE766"/>
</svg>
